<?xml version="1.0" encoding="UTF-8" standalone="no"?>
<svg
   xmlns:dc="http://purl.org/dc/elements/1.1/"
   xmlns:cc="http://creativecommons.org/ns#"
   xmlns:rdf="http://www.w3.org/1999/02/22-rdf-syntax-ns#"
   xmlns:svg="http://www.w3.org/2000/svg"
   xmlns="http://www.w3.org/2000/svg"
   xmlns:xlink="http://www.w3.org/1999/xlink"
   xmlns:sodipodi="http://sodipodi.sourceforge.net/DTD/sodipodi-0.dtd"
   xmlns:inkscape="http://www.inkscape.org/namespaces/inkscape"
   width="96.116959mm"
   height="96.116959mm"
   viewBox="0 0 96.116957 96.116958"
   version="1.1"
   id="svg8"
   inkscape:version="1.0 (4035a4fb49, 2020-05-01)"
   sodipodi:docname="electron–positron-pair-production.svg">
  <defs
     id="defs2">
    <marker
       inkscape:isstock="true"
       style="overflow:visible"
       id="marker1301"
       refX="0"
       refY="0"
       orient="auto"
       inkscape:stockid="Arrow2Mend">
      <path
         transform="scale(-0.6)"
         d="M 8.7185878,4.0337352 -2.2072895,0.01601326 8.7185884,-4.0017078 c -1.7454984,2.3720609 -1.7354408,5.6174519 -6e-7,8.035443 z"
         style="fill:#000000;fill-opacity:1;fill-rule:evenodd;stroke:#000000;stroke-width:0.625;stroke-linejoin:round;stroke-opacity:1"
         id="path1299" />
    </marker>
    <marker
       inkscape:stockid="Arrow2Mend"
       orient="auto"
       refY="0"
       refX="0"
       id="Arrow2Mend"
       style="overflow:visible"
       inkscape:isstock="true"
       inkscape:collect="always">
      <path
         id="path1431"
         style="fill:#000000;fill-opacity:1;fill-rule:evenodd;stroke:#000000;stroke-width:0.625;stroke-linejoin:round;stroke-opacity:1"
         d="M 8.7185878,4.0337352 -2.2072895,0.01601326 8.7185884,-4.0017078 c -1.7454984,2.3720609 -1.7354408,5.6174519 -6e-7,8.035443 z"
         transform="scale(-0.6)" />
    </marker>
    <clipPath
       clipPathUnits="userSpaceOnUse"
       id="clipPath849-6">
      <path
         d="M 0,1.2207e-4 H 720 V 540.00012 H 0 Z"
         clip-rule="evenodd"
         id="path847-8" />
    </clipPath>
    <clipPath
       id="clipPath1344-4"
       clipPathUnits="userSpaceOnUse">
      <path
         id="path1342-3"
         clip-rule="evenodd"
         d="M 1.0729e-5,0 H 720.00001 V 540 H 1.0729e-5 Z" />
    </clipPath>
    <clipPath
       id="clipPath1356-3"
       clipPathUnits="userSpaceOnUse">
      <path
         id="path1354-3"
         clip-rule="evenodd"
         d="M 1.0729e-5,0 H 720.00001 V 540 H 1.0729e-5 Z" />
    </clipPath>
    <clipPath
       id="clip51">
      <path
         d="M 0,0 V 940 H 1190 V 0 Z"
         id="path2593" />
    </clipPath>
    <marker
       style="overflow:visible"
       id="Arrow1Mend"
       refX="0"
       refY="0"
       orient="auto">
      <path
         transform="matrix(-0.4,0,0,-0.4,-4,0)"
         style="fill:#000000;fill-opacity:1;fill-rule:evenodd;stroke:#000000;stroke-width:1pt;stroke-opacity:1"
         d="M 0,0 5,-5 -12.5,0 5,5 Z"
         id="path1912" />
    </marker>
    <filter
       style="color-interpolation-filters:sRGB"
       inkscape:label="Invert"
       id="filter1404">
      <feColorMatrix
         type="hueRotate"
         values="180"
         result="color1"
         id="feColorMatrix1400" />
      <feColorMatrix
         values="1 0 0 0 0 0 1 0 0 0 0 0 1 0 0 -0.21 -0.72 -0.07 2 0 "
         result="color2"
         id="feColorMatrix1402" />
    </filter>
    <clipPath
       id="clipPath1365-7"
       clipPathUnits="userSpaceOnUse">
      <path
         id="path1363-1"
         clip-rule="evenodd"
         d="M 1.0729e-5,0 H 720.00001 V 540 H 1.0729e-5 Z" />
    </clipPath>
  </defs>
  <sodipodi:namedview
     id="base"
     pagecolor="#ffffff"
     bordercolor="#666666"
     borderopacity="1.0"
     inkscape:pageopacity="0.0"
     inkscape:pageshadow="2"
     inkscape:zoom="2.9809598"
     inkscape:cx="131.85531"
     inkscape:cy="199.37425"
     inkscape:document-units="mm"
     inkscape:current-layer="layer1"
     inkscape:document-rotation="0"
     showgrid="false"
     inkscape:window-width="3710"
     inkscape:window-height="2120"
     inkscape:window-x="118"
     inkscape:window-y="-12"
     inkscape:window-maximized="1"
     inkscape:snap-global="false"
     fit-margin-top="0"
     fit-margin-left="0"
     fit-margin-right="0"
     fit-margin-bottom="0" />
  <metadata
     id="metadata5">
    <rdf:RDF>
      <cc:Work
         rdf:about="">
        <dc:format>image/svg+xml</dc:format>
        <dc:type
           rdf:resource="http://purl.org/dc/dcmitype/StillImage" />
        <dc:title />
      </cc:Work>
    </rdf:RDF>
  </metadata>
  <g
     inkscape:groupmode="layer"
     id="layer3"
     inkscape:label="background"
     transform="translate(-100.40208,-36.510949)">
    <g
       style="fill:#ffffff"
       transform="matrix(0.13349578,0,0,-0.17799439,100.40208,132.62793)"
       id="g843">
      <g
         style="fill:#ffffff"
         clip-path="url(#clipPath849-6)"
         id="g845">
        <path
           id="path851"
           style="fill:#ffffff;fill-opacity:1;fill-rule:evenodd;stroke:none"
           d="M 0,6.1035e-5 H 720 V 540.00006 H 0 Z" />
      </g>
    </g>
    <g
       transform="matrix(0.47714638,0,0,-0.47714638,-74.235964,168.6071)"
       id="g1359"
       style="display:inline;stroke-width:0.739349">
      <g
         clip-path="url(#clipPath1365-7)"
         id="g1361"
         style="stroke-width:0.739349">
        <g
           aria-label="γ"
           transform="matrix(1,0,0,-1,390.02,140.02)"
           id="text1369"
           style="font-variant:normal;font-weight:normal;font-size:24px;font-family:'Trebuchet MS';-inkscape-font-specification:TrebuchetMS;writing-mode:lr-tb;fill:#000000;fill-opacity:1;fill-rule:nonzero;stroke:none;stroke-width:0.739349">
          <path
             d="M 11.8125,-10.652344 Q 8.25,-4.6640625 6.2695312,-0.1640625 q 0.1171875,1.2304687 0.1171875,2.8242188 0,0.7851562 -0.046875,1.3710937 L 5.2851562,4.6992187 H 4.078125 V 3.9609375 q 0,-1.9453125 0.796875,-3.796875 -0.421875,-4.265625 -1.4414062,-7.3125 -1.0195313,-3.0468755 -2.1914063,-3.0468755 -0.38671875,0 -1.078125,0.5039067 l -0.48046875,-0.6796877 q 1.37109375,-1.078125 2.44921875,-1.078125 1.6640625,0 2.6367187,2.2734377 0.984375,2.2617188 1.2773438,6.796875 H 6.1875 q 2.484375,-6 3.2695313,-8.8476567 H 11.8125 Z"
             style="font-style:normal;font-variant:normal;font-weight:normal;font-stretch:normal;font-family:Caladea;-inkscape-font-specification:Caladea;stroke-width:0.739349"
             id="path1569" />
        </g>
      </g>
    </g>
  </g>
  <g
     inkscape:groupmode="layer"
     id="layer2"
     inkscape:label="graphic"
     style="opacity:1"
     transform="translate(-100.40208,-36.510949)">
    <g
       inkscape:tile-y0="131.1184"
       inkscape:tile-x0="-61.894851"
       inkscape:tile-h="48.370961"
       inkscape:tile-w="48.370961"
       inkscape:tile-cy="155.30388"
       inkscape:tile-cx="-37.70937"
       transform="matrix(0.18999003,0,0,0.18999003,-8.9032212,-89.078222)"
       id="g4192">
      <circle
         r="23.593765"
         cy="674.23383"
         cx="58.132454"
         id="circle4162"
         style="fill:#ffffff;fill-opacity:1;fill-rule:evenodd;stroke:#000000;stroke-width:1.31586;stroke-linecap:butt;stroke-linejoin:miter;stroke-miterlimit:4;stroke-dasharray:none;stroke-opacity:1" />
      <path
         id="path4164"
         d="m 58.132517,654.11053 a 20.123305,20.123305 0 0 0 -20.123458,20.12326 20.123305,20.123305 0 0 0 0.265223,3.19223 27.064225,27.064225 0 0 1 24.037588,-22.86798 20.123305,20.123305 0 0 0 -4.179353,-0.44751 z"
         style="fill:#000000;fill-opacity:0.129412;fill-rule:evenodd;stroke:none;stroke-width:1.18343px;stroke-linecap:butt;stroke-linejoin:miter;stroke-opacity:1"
         inkscape:connector-curvature="0" />
    </g>
    <g
       inkscape:tile-y0="67.073326"
       inkscape:tile-x0="-61.363974"
       inkscape:tile-h="48.37096"
       inkscape:tile-w="48.37096"
       inkscape:tile-cy="91.258807"
       inkscape:tile-cx="-37.178493"
       transform="matrix(0.01858754,0,0,0.01858754,-2.6135642,46.23933)"
       id="g4156">
      <circle
         style="fill:#ff0000;fill-rule:evenodd;stroke:#000000;stroke-width:13.4499;stroke-linecap:butt;stroke-linejoin:miter;stroke-miterlimit:4;stroke-dasharray:none;stroke-opacity:1"
         id="path3347"
         cx="282.69662"
         cy="317.70737"
         r="241.16078" />
      <path
         inkscape:connector-curvature="0"
         style="fill:#000000;fill-opacity:0.129412;fill-rule:evenodd;stroke:none;stroke-width:1.18343px;stroke-linecap:butt;stroke-linejoin:miter;stroke-opacity:1"
         d="M 282.69727,112.01953 A 205.6879,205.6879 0 0 0 77.007812,317.70703 205.6879,205.6879 0 0 0 79.71875,350.33594 276.63367,276.63367 0 0 1 325.41602,116.59375 205.6879,205.6879 0 0 0 282.69727,112.01953 Z"
         id="circle4151" />
    </g>
    <g
       id="g2646"
       transform="translate(101.67317,-5.6485096)">
      <use
         x="0"
         y="0"
         xlink:href="#g4192"
         id="use2588"
         transform="translate(75.927267,60.774126)"
         width="100%"
         height="100%" />
      <use
         x="0"
         y="0"
         xlink:href="#g4192"
         id="use2534"
         transform="translate(59.577392,41.933436)"
         width="100%"
         height="100%" />
      <use
         height="100%"
         width="100%"
         transform="translate(80.080442,55.513371)"
         id="use2536"
         xlink:href="#g4192"
         y="0"
         x="0" />
      <use
         height="100%"
         width="100%"
         transform="translate(68.719442,63.679087)"
         id="use2538"
         xlink:href="#g4192"
         y="0"
         x="0" />
      <use
         height="100%"
         width="100%"
         transform="translate(60.205602,48.270184)"
         id="use2540"
         xlink:href="#g4156"
         y="0"
         x="0" />
      <use
         x="0"
         y="0"
         xlink:href="#g4156"
         id="use2542"
         transform="translate(55.767712,41.568973)"
         width="100%"
         height="100%" />
      <use
         x="0"
         y="0"
         xlink:href="#g4156"
         id="use2544"
         transform="translate(64.110942,49.779066)"
         width="100%"
         height="100%" />
      <use
         x="0"
         y="0"
         xlink:href="#g4192"
         id="use2548"
         transform="translate(57.713482,58.708651)"
         width="100%"
         height="100%" />
      <use
         x="0"
         y="0"
         xlink:href="#g4156"
         id="use2550"
         transform="translate(79.288532,33.181365)"
         width="100%"
         height="100%" />
      <use
         height="100%"
         width="100%"
         transform="translate(74.362472,27.190215)"
         id="use2552"
         xlink:href="#g4156"
         y="0"
         x="0" />
      <use
         x="0"
         y="0"
         xlink:href="#g4156"
         id="use2554"
         transform="translate(66.684922,25.592575)"
         width="100%"
         height="100%" />
      <use
         x="0"
         y="0"
         xlink:href="#g4156"
         id="use2556"
         transform="translate(78.578462,44.586738)"
         width="100%"
         height="100%" />
      <use
         x="0"
         y="0"
         xlink:href="#g4192"
         id="use2558"
         transform="translate(73.157332,62.791509)"
         width="100%"
         height="100%" />
      <use
         x="0"
         y="0"
         xlink:href="#g4192"
         id="use2560"
         transform="translate(80.701742,50.720453)"
         width="100%"
         height="100%" />
      <use
         height="100%"
         width="100%"
         transform="translate(77.683982,42.909772)"
         id="use2562"
         xlink:href="#g4192"
         y="0"
         x="0" />
      <use
         height="100%"
         width="100%"
         transform="translate(62.683912,39.892006)"
         id="use2564"
         xlink:href="#g4192"
         y="0"
         x="0" />
      <use
         x="0"
         y="0"
         xlink:href="#g4192"
         id="use2566"
         transform="translate(70.405842,39.093186)"
         width="100%"
         height="100%" />
      <use
         height="100%"
         width="100%"
         transform="translate(56.382112,46.992627)"
         id="use2568"
         xlink:href="#g4192"
         y="0"
         x="0" />
      <use
         height="100%"
         width="100%"
         transform="translate(57.143462,31.361831)"
         id="use2570"
         xlink:href="#g4156"
         y="0"
         x="0" />
      <use
         x="0"
         y="0"
         xlink:href="#g4192"
         id="use2572"
         transform="translate(56.027082,50.809211)"
         width="100%"
         height="100%" />
      <use
         height="100%"
         width="100%"
         transform="translate(63.038942,55.779647)"
         id="use2574"
         xlink:href="#g4192"
         y="0"
         x="0" />
      <use
         x="0"
         y="0"
         xlink:href="#g4192"
         id="use2576"
         transform="translate(70.405832,58.619895)"
         width="100%"
         height="100%" />
      <use
         height="100%"
         width="100%"
         transform="translate(73.430522,33.092607)"
         id="use2578"
         xlink:href="#g4156"
         y="0"
         x="0" />
      <use
         height="100%"
         width="100%"
         transform="translate(75.642542,53.116913)"
         id="use2580"
         xlink:href="#g4192"
         y="0"
         x="0" />
      <use
         x="0"
         y="0"
         xlink:href="#g4192"
         id="use2582"
         transform="translate(66.411732,44.418653)"
         width="100%"
         height="100%" />
      <use
         height="100%"
         width="100%"
         transform="translate(61.618812,47.968963)"
         id="use2584"
         xlink:href="#g4192"
         y="0"
         x="0" />
      <use
         x="0"
         y="0"
         xlink:href="#g4156"
         id="use2586"
         transform="translate(67.705642,39.083757)"
         width="100%"
         height="100%" />
    </g>
    <g
       style="stroke-width:2.97017"
       id="g2674"
       transform="matrix(0.00625807,0,0,0.00625807,1.0101232,60.752257)"
       inkscape:tile-cx="-37.178493"
       inkscape:tile-cy="91.258807"
       inkscape:tile-w="48.37096"
       inkscape:tile-h="48.37096"
       inkscape:tile-x0="-61.363974"
       inkscape:tile-y0="67.073326">
      <circle
         r="241.16078"
         cy="317.70737"
         cx="282.69662"
         id="circle2670"
         style="fill:#3434ff;fill-opacity:1;fill-rule:evenodd;stroke:#000000;stroke-width:39.9484;stroke-linecap:butt;stroke-linejoin:miter;stroke-miterlimit:4;stroke-dasharray:none;stroke-opacity:1" />
      <path
         id="path2672"
         d="M 282.69727,112.01953 A 205.6879,205.6879 0 0 0 77.007812,317.70703 205.6879,205.6879 0 0 0 79.71875,350.33594 276.63367,276.63367 0 0 1 325.41602,116.59375 205.6879,205.6879 0 0 0 282.69727,112.01953 Z"
         style="fill:#000000;fill-opacity:0.129412;fill-rule:evenodd;stroke:none;stroke-width:3.51499px;stroke-linecap:butt;stroke-linejoin:miter;stroke-opacity:1"
         inkscape:connector-curvature="0" />
    </g>
    <g
       style="stroke:#000000;stroke-width:4.56851;stroke-linecap:square;stroke-linejoin:miter;stroke-miterlimit:10;stroke-dasharray:none;stroke-dashoffset:0;stroke-opacity:1"
       id="g2602"
       transform="matrix(0.16620873,0.00577524,-0.00562745,0.16195514,76.103824,63.448877)">
      <clipPath
         id="clipPath867">
        <path
           id="path865"
           d="M 0,0 V 940 H 1190 V 0 Z" />
      </clipPath>
      <g
         style="stroke:#000000;stroke-width:4.56851;stroke-miterlimit:10;stroke-dasharray:none;stroke-opacity:1"
         id="g2600"
         clip-path="url(#clip51)">
        <g
           id="g2598"
           style="fill:none;stroke:#000000;stroke-width:4.56851;stroke-linecap:round;stroke-linejoin:round;stroke-miterlimit:10;stroke-dasharray:none;stroke-opacity:1">
          <path
             style="stroke:#000000;stroke-width:4.56851;stroke-linecap:round;stroke-linejoin:round;stroke-miterlimit:10;stroke-dasharray:none;stroke-opacity:1;marker-end:url(#Arrow1Mend)"
             id="path2596"
             d="m 195.23,122.74 9.3,-0.97 9.3,0.56 0.58,0.19 0.58,0.2 1.16,0.45 2.33,1.03 4.64,1.85 0.59,0.13 0.58,0.1 1.16,0.05 1.16,-0.14 0.58,-0.16 0.58,-0.21 1.17,-0.6 1.16,-0.84 2.32,-2.34 9.3,-9.88 0.58,-0.03 0.58,0.11 0.58,0.24 0.58,0.39 0.58,0.53 0.59,0.69 1.16,1.81 2.32,5.27 2.33,6.89 2.32,7.37 2.32,6.35 1.17,2.28 0.58,0.83 0.58,0.6 0.58,0.35 0.58,0.08 0.58,-0.2 0.58,-0.49 0.58,-0.79 0.58,-1.09 1.17,-3.08 2.32,-9.5 1.16,-6.11 1.17,-6.72 1.16,-7.04 1.16,-7.01 1.16,-6.631 1.16,-5.895 2.33,-8.203 0.29,-0.598 0.58,-0.868 0.58,-0.411 0.58,0.066 0.58,0.554 0.87,1.767 1.17,4.089 1.16,5.985 1.16,7.685 1.16,9.1 0.58,4.97 0.58,5.17 0.59,5.32 0.58,5.4 0.58,5.42 0.58,5.39 0.58,5.27 0.58,5.09 1.16,9.4 1.17,7.93 1.16,6.02 1.16,3.74 0.29,0.55 0.44,0.52 0.5,0.14 0.51,-0.38 0.58,-1.06 1.17,-4.13 1.16,-6.68 1.16,-8.97 0.58,-5.23 0.58,-5.65 0.58,-6.01 0.58,-6.3 0.59,-6.52 0.58,-6.65 0.58,-6.71 0.58,-6.7 0.58,-6.6 0.58,-6.413 0.58,-6.159 0.58,-5.826 0.58,-5.422 0.58,-4.952 1.17,-8.253 2.32,-8.636 0.51,-0.348 0.51,0.224 0.43,0.644 0.29,0.66 0.59,1.863 1.16,5.804 1.16,8.322 0.58,4.981 0.58,5.448 0.58,5.848 0.58,6.177 0.58,6.428 0.59,6.61 0.58,6.69 0.58,6.72 0.58,6.65 0.58,6.5 0.58,6.28 0.58,5.99 0.58,5.63 0.58,5.21 1.17,8.9 1.16,6.61 1.16,4.05 0.29,0.6 0.44,0.58 0.51,0.19 0.5,-0.32 0.58,-0.97 0.59,-1.61 0.58,-2.21 1.16,-6.08 1.16,-7.98 1.16,-9.44 0.58,-5.1 0.59,-5.28 0.58,-5.39 0.58,-5.42 0.58,-5.4 0.58,-5.31 0.58,-5.16 0.58,-4.95 1.16,-9.07 1.17,-7.638 2.32,-9.963 0.29,-0.698 0.29,-0.574 0.58,-0.774 0.51,-0.271 0.51,0.099 0.73,0.765 0.58,1.113 1.16,3.444 1.16,4.842 1.16,5.922 1.16,6.653 1.17,7.02 1.16,7.02 1.16,6.71 1.16,6.09 1.17,5.24 2.32,7.24 0.29,0.58 0.87,1.27 0.58,0.47 0.58,0.19 0.58,-0.1 0.59,-0.37 0.58,-0.61 0.58,-0.85 1.16,-2.3 1.16,-2.96 2.33,-7.08 2.32,-7.29 2.33,-6.17 2.32,-4.16 0.58,-0.67 0.58,-0.53 0.58,-0.38 0.58,-0.23 0.58,-0.1 0.59,0.03 0.58,0.16 0.58,0.27 0.58,0.38 0.58,0.46 1.16,1.17 4.65,6.05 4.65,4.59 0.58,0.33 0.58,0.27 1.16,0.35 0.58,0.1 0.59,0.04 1.16,-0.06 1.16,-0.23 1.16,-0.35 2.33,-0.97 9.29,-3.09 0.58,-0.05 0.58,-0.03 1.17,-0.01 2.32,0.12 4.65,0.55 9.3,0.63 9.29,-0.2" />
        </g>
        <!-- drawing style -->
      </g>
      <!-- clip51 -->
    </g>
  </g>
  <g
     style="display:inline"
     inkscape:label="label"
     inkscape:groupmode="layer"
     id="layer1"
     transform="translate(-100.40208,-36.510949)">
    <use
       x="0"
       y="0"
       xlink:href="#g2674"
       id="use2678"
       transform="translate(149.06948,-9.8813853)"
       width="100%"
       height="100%" />
    <path
       style="fill:none;stroke:#000000;stroke-width:0.5;stroke-linecap:butt;stroke-linejoin:miter;stroke-miterlimit:4;stroke-dasharray:none;stroke-opacity:1;marker-end:url(#Arrow2Mend)"
       d="M 151.85354,85.173076 V 59.287772"
       id="path1402"
       sodipodi:nodetypes="cc" />
    <g
       inkscape:tile-y0="67.073326"
       inkscape:tile-x0="-61.363974"
       transform="matrix(0.00625807,0,0,0.00625807,150.0796,117.7406)"
       id="use1275"
       style="stroke-width:2.97017">
      <circle
         style="fill:#3434ff;fill-opacity:1;fill-rule:evenodd;stroke:#000000;stroke-width:39.9484;stroke-linecap:butt;stroke-linejoin:miter;stroke-miterlimit:4;stroke-dasharray:none;stroke-opacity:1;filter:url(#filter1404)"
         id="circle1394"
         cx="282.69662"
         cy="317.70737"
         r="241.16078" />
      <path
         inkscape:connector-curvature="0"
         style="fill:#000000;fill-opacity:0.129412;fill-rule:evenodd;stroke:none;stroke-width:3.51499px;stroke-linecap:butt;stroke-linejoin:miter;stroke-opacity:1"
         d="M 282.69727,112.01953 A 205.6879,205.6879 0 0 0 77.007812,317.70703 205.6879,205.6879 0 0 0 79.71875,350.33594 276.63367,276.63367 0 0 1 325.41602,116.59375 205.6879,205.6879 0 0 0 282.69727,112.01953 Z"
         id="path1396" />
    </g>
    <path
       sodipodi:nodetypes="cc"
       id="path1277"
       d="M 151.85354,87.269684 V 113.15499"
       style="fill:none;stroke:#000000;stroke-width:0.5;stroke-linecap:butt;stroke-linejoin:miter;stroke-miterlimit:4;stroke-dasharray:none;stroke-opacity:1;marker-end:url(#marker1301)" />
    <g
       id="g1338"
       transform="matrix(0.35277777,0,0,-0.35277777,66.691229,126.81804)">
      <g
         id="g1340"
         clip-path="url(#clipPath1344-4)">
        <g
           aria-label="e"
           transform="matrix(1,0,0,-1,250.99,213.17)"
           id="text1348"
           style="font-variant:normal;font-weight:normal;font-size:24px;font-family:'Trebuchet MS';-inkscape-font-specification:TrebuchetMS;writing-mode:lr-tb;fill:#000000;fill-opacity:1;fill-rule:nonzero;stroke:none">
          <path
             d="M 12.152344,-6.0585937 H 3.1054688 q 0,2.2031249 1.2070312,3.3867187 1.0664062,1.03125 2.7421875,1.03125 1.9101563,0 3.1875005,-1.1132813 l 0.9375,1.6054688 q -0.515625,0.515625 -1.5820317,0.890625 -1.3359375,0.4921875 -2.9765626,0.4921875 -2.3671875,0 -4.0195312,-1.6054687 -1.83984375,-1.7695313 -1.83984375,-4.7578125 0,-3.1054688 1.88671875,-4.9804688 1.6875,-1.675781 3.9960937,-1.675781 2.6835938,0 4.2070318,1.511718 1.476562,1.4531255 1.476562,3.8554693 0,0.7382812 -0.175781,1.359375 z M 6.75,-10.910156 q -1.4882813,0 -2.4960938,0.9609372 -0.9609374,0.9140625 -1.0898437,2.2734376 h 6.9492185 q 0,-1.3476563 -0.8437497,-2.2500001 Q 8.34375,-10.910156 6.75,-10.910156 Z"
             id="path1557" />
        </g>
      </g>
    </g>
    <g
       id="g1350"
       transform="matrix(0.35277777,0,0,-0.35277777,66.691229,126.81804)">
      <g
         id="g1352"
         clip-path="url(#clipPath1356-3)">
        <g
           aria-label="−"
           transform="matrix(1,0,0,-1,264.07,220.37)"
           id="text1360"
           style="font-variant:normal;font-weight:normal;font-size:15.96px;font-family:'Trebuchet MS';-inkscape-font-specification:TrebuchetMS;writing-mode:lr-tb;fill:#000000;fill-opacity:1;fill-rule:nonzero;stroke:none">
          <path
             d="m 8.2761328,-5.735625 v 1.5663867 H 1.2780469 V -5.735625 Z"
             style="font-style:normal;font-variant:normal;font-weight:bold;font-stretch:normal;font-family:'Trebuchet MS';-inkscape-font-specification:'Trebuchet MS Bold'"
             id="path1560" />
        </g>
      </g>
    </g>
    <g
       transform="matrix(0.35277777,0,0,-0.35277777,66.691229,200.50871)"
       id="g1285">
      <g
         clip-path="url(#clipPath1344-4)"
         id="g1283">
        <g
           aria-label="e"
           transform="matrix(1,0,0,-1,250.99,213.17)"
           id="text1281"
           style="font-variant:normal;font-weight:normal;font-size:24px;font-family:'Trebuchet MS';-inkscape-font-specification:TrebuchetMS;writing-mode:lr-tb;fill:#000000;fill-opacity:1;fill-rule:nonzero;stroke:none">
          <path
             d="M 12.152344,-6.0585937 H 3.1054688 q 0,2.2031249 1.2070312,3.3867187 1.0664062,1.03125 2.7421875,1.03125 1.9101563,0 3.1875005,-1.1132813 l 0.9375,1.6054688 q -0.515625,0.515625 -1.5820317,0.890625 -1.3359375,0.4921875 -2.9765626,0.4921875 -2.3671875,0 -4.0195312,-1.6054687 -1.83984375,-1.7695313 -1.83984375,-4.7578125 0,-3.1054688 1.88671875,-4.9804688 1.6875,-1.675781 3.9960937,-1.675781 2.6835938,0 4.2070318,1.511718 1.476562,1.4531255 1.476562,3.8554693 0,0.7382812 -0.175781,1.359375 z M 6.75,-10.910156 q -1.4882813,0 -2.4960938,0.9609372 -0.9609374,0.9140625 -1.0898437,2.2734376 h 6.9492185 q 0,-1.3476563 -0.8437497,-2.2500001 Q 8.34375,-10.910156 6.75,-10.910156 Z"
             id="path1563" />
        </g>
      </g>
    </g>
    <g
       transform="matrix(0.35277777,0,0,-0.35277777,66.691229,200.50871)"
       id="g1293">
      <g
         clip-path="url(#clipPath1356-3)"
         id="g1291">
        <g
           aria-label="+"
           transform="matrix(1,0,0,-1,264.07,220.37)"
           id="text1289"
           style="font-variant:normal;font-weight:normal;font-size:15.96px;font-family:'Trebuchet MS';-inkscape-font-specification:TrebuchetMS;writing-mode:lr-tb;fill:#000000;fill-opacity:1;fill-rule:nonzero;stroke:none">
          <path
             d="m 5.5563867,-4.1692383 v 2.7665039 H 3.99 V -4.1692383 H 1.2780469 V -5.735625 H 3.99 v -2.6729883 h 1.5663867 v 2.6729883 h 2.7197461 v 1.5663867 z"
             style="font-style:normal;font-variant:normal;font-weight:bold;font-stretch:normal;font-family:'Trebuchet MS';-inkscape-font-specification:'Trebuchet MS Bold'"
             id="path1566" />
        </g>
      </g>
    </g>
  </g>
</svg>
